{"glyphs":{":":{"x_min":0,"x_max":278,"ha":278,"o":"m 139 285 b 171 285 195 309 195 340 b 195 371 171 397 139 397 b 108 397 83 370 83 340 b 83 309 108 285 139 285 z m 139 -9 b 171 -9 195 16 195 47 b 195 77 171 103 139 103 b 108 103 83 77 83 47 b 83 16 108 -9 139 -9 z"},"$":{"x_min":0,"x_max":527,"ha":527,"o":"m 481 179 b 481 284 400 333 311 372 l 281 385 l 281 636 b 334 633 370 612 370 590 b 370 574 346 569 346 540 b 346 507 369 487 399 487 b 429 487 453 505 453 546 b 453 619 377 661 281 666 l 281 732 l 239 732 l 239 665 b 141 659 57 613 57 502 b 57 406 120 356 212 316 l 239 304 l 239 24 b 188 28 134 50 134 71 b 134 87 161 93 161 125 b 161 158 139 177 107 177 b 75 177 52 157 52 118 b 52 42 147 -2 239 -7 l 239 -97 l 281 -97 l 281 -7 b 380 0 481 52 481 179 z m 143 526 b 143 594 179 628 239 635 l 239 403 b 173 431 143 462 143 526 z m 281 26 l 281 285 b 355 253 393 218 393 155 b 393 88 354 37 281 26 z"},"?":{"x_min":0,"x_max":467,"ha":467,"o":"m 186 178 l 223 178 l 223 217 b 223 351 408 378 408 537 b 408 641 320 674 236 674 b 154 674 70 639 70 556 b 70 518 89 490 124 490 b 156 490 175 509 175 539 b 175 578 147 575 147 602 b 147 635 196 649 230 649 b 287 649 315 603 315 539 b 315 388 186 379 186 217 l 186 178 z m 208 -9 b 239 -9 264 16 264 47 b 264 78 239 103 208 103 b 176 103 152 77 152 47 b 152 16 176 -9 208 -9 z"},"<":{"x_min":0,"x_max":590,"ha":590,"o":"m 529 -7 l 529 57 l 137 235 l 529 412 l 529 476 l 60 264 l 60 205 l 529 -7 z"},"'":{"x_min":0,"x_max":212,"ha":212,"o":"m 106 465 b 119 465 122 473 124 485 l 141 588 b 143 604 145 623 145 635 b 145 654 138 675 106 675 b 75 675 67 654 67 635 b 67 623 69 604 72 588 l 88 485 b 90 473 93 465 106 465 z"},"=":{"x_min":0,"x_max":536,"ha":536,"o":"m 33 300 l 502 300 l 502 359 l 33 359 l 33 300 z m 33 110 l 502 110 l 502 169 l 33 169 l 33 110 z"},"a":{"x_min":0,"x_max":490,"ha":490,"o":"m 472 41 b 463 37 456 34 444 34 b 419 34 408 48 408 102 l 408 339 b 408 445 357 478 260 478 b 133 478 76 418 76 359 b 76 326 95 306 126 306 b 156 306 172 324 172 352 b 172 387 142 387 142 404 b 142 420 184 443 233 443 b 302 443 324 406 324 342 l 324 284 b 145 255 50 181 50 89 b 50 21 104 -11 174 -11 b 236 -11 280 16 324 54 b 328 -4 354 -10 388 -10 b 438 -10 464 7 479 16 l 472 41 z m 140 113 b 140 182 200 226 324 252 l 324 87 b 295 65 260 43 218 43 b 168 43 140 66 140 113 z"},"L":{"x_min":0,"x_max":576,"ha":576,"o":"m 50 0 l 526 0 l 537 171 l 511 171 b 486 58 452 34 339 34 b 242 34 219 41 219 114 l 219 571 b 219 622 223 631 298 631 l 298 660 l 50 660 l 50 631 b 123 631 127 622 127 571 l 127 89 b 127 37 124 29 50 29 l 50 0 z"},"3":{"x_min":0,"x_max":545,"ha":545,"o":"m 241 -11 b 383 -11 472 62 472 185 b 472 304 388 360 313 364 l 313 367 b 399 383 443 436 442 515 b 442 624 357 671 252 671 b 152 671 58 628 58 547 b 58 506 82 485 117 485 b 148 485 170 503 170 536 b 170 565 152 571 152 590 b 152 618 192 639 236 639 b 309 639 344 580 344 510 b 344 442 310 379 227 379 b 212 379 197 380 183 381 l 183 341 b 201 342 216 343 227 343 b 325 343 372 291 372 187 b 372 81 323 21 230 21 b 175 21 138 44 138 73 b 138 92 155 96 155 126 b 155 160 133 179 103 179 b 68 179 43 156 43 113 b 43 33 133 -11 241 -11 z"},";":{"x_min":0,"x_max":273,"ha":273,"o":"m 139 285 b 170 285 195 310 195 340 b 195 371 170 397 139 397 b 108 397 83 371 83 340 b 83 310 108 285 139 285 z m 88 -107 b 169 -93 197 -27 197 32 b 197 89 169 110 138 110 b 108 110 81 89 81 53 b 81 12 112 2 130 -2 b 143 -5 147 -12 147 -22 b 147 -54 118 -73 84 -81 l 88 -107 z"},"J":{"x_min":0,"x_max":379,"ha":379,"o":"m 78 -210 b 233 -210 266 -83 266 79 l 266 570 b 266 622 270 631 343 631 l 343 660 l 97 660 l 97 631 b 170 631 174 622 174 570 l 174 -6 b 174 -107 158 -177 87 -177 b 68 -177 55 -169 55 -156 b 55 -140 73 -140 73 -108 b 73 -75 48 -59 21 -59 b -17 -59 -38 -84 -38 -123 b -38 -170 9 -210 78 -210 z"},"V":{"x_min":0,"x_max":650,"ha":650,"o":"m 292 0 l 349 0 l 563 579 b 580 622 595 631 640 631 l 640 660 l 449 660 l 449 631 l 496 631 b 521 631 524 619 517 594 l 351 112 l 348 113 l 180 596 b 172 620 177 631 200 631 l 249 631 l 249 660 l 9 660 l 9 631 b 62 631 73 622 90 576 l 292 0 z"},"\"":{"x_min":0,"x_max":364,"ha":364,"o":"m 112 465 b 126 465 129 473 130 485 l 147 588 b 150 604 151 623 151 635 b 151 654 144 675 112 675 b 81 675 73 654 73 635 b 73 623 75 604 78 588 l 94 485 b 96 473 99 465 112 465 z m 251 465 b 264 465 268 473 269 485 l 285 588 b 288 604 290 623 290 635 b 290 654 283 675 251 675 b 218 675 212 654 212 635 b 212 623 214 604 216 588 l 233 485 b 234 473 238 465 251 465 z"},"7":{"x_min":0,"x_max":520,"ha":520,"o":"m 198 -12 b 235 -12 246 15 247 54 b 250 144 245 237 328 387 b 351 428 422 546 462 595 l 462 660 l 55 660 l 38 514 l 67 514 l 75 533 b 88 566 101 581 148 581 l 407 581 b 372 535 285 399 271 377 b 200 265 149 152 149 58 b 149 15 162 -12 198 -12 z"},"S":{"x_min":0,"x_max":521,"ha":521,"o":"m 59 -8 l 84 -8 b 85 5 92 17 107 17 b 130 17 162 -12 251 -12 b 388 -12 475 60 475 178 b 475 294 391 339 305 376 l 257 396 b 187 426 143 457 143 525 b 143 602 191 638 259 638 b 350 638 396 574 408 492 l 434 492 l 424 669 l 402 669 b 399 656 395 644 383 644 b 362 644 337 672 257 672 b 145 672 54 617 54 500 b 54 393 129 346 223 306 l 269 287 b 345 254 384 217 384 152 b 384 81 337 22 250 22 b 146 22 85 106 72 192 l 46 192 l 59 -8 z"},"}":{"x_min":0,"x_max":283,"ha":283,"o":"m 30 -125 l 53 -125 b 171 -125 171 -48 171 34 l 171 162 b 171 227 196 257 243 257 l 243 280 b 193 279 171 313 171 371 l 171 501 b 171 580 169 660 54 660 l 30 660 l 30 631 b 107 630 105 584 105 528 l 105 400 b 105 335 111 290 187 271 l 187 265 b 112 247 105 204 105 139 l 105 7 b 105 -50 106 -94 30 -96 l 30 -125 z"},"Z":{"x_min":0,"x_max":573,"ha":573,"o":"m 24 0 l 539 0 l 550 176 l 522 176 b 501 59 460 33 314 33 l 128 33 l 543 632 l 543 660 l 76 660 l 76 492 l 103 492 b 117 603 145 627 272 627 l 437 627 l 24 29 l 24 0 z"},"x":{"x_min":0,"x_max":495,"ha":495,"o":"m 403 71 l 271 267 l 374 404 b 395 432 410 439 456 439 l 456 468 l 299 468 l 299 439 l 330 439 b 344 439 350 429 339 414 l 255 290 l 173 412 b 163 427 168 439 184 439 l 206 439 l 206 468 l 14 468 l 14 439 b 53 439 64 433 84 405 l 207 219 l 100 72 b 75 38 51 29 10 29 l 10 0 l 177 0 l 177 29 l 148 29 b 129 29 124 45 134 61 l 223 195 l 311 62 b 323 42 319 29 301 29 l 269 29 l 269 0 l 485 0 l 485 29 b 436 29 423 41 403 71 z"},")":{"x_min":0,"x_max":333,"ha":333,"o":"m 25 -124 b 212 -114 248 106 248 266 b 248 426 212 646 25 657 l 24 635 b 129 607 181 438 181 266 b 181 93 127 -74 24 -104 l 25 -124 z"},"&":{"x_min":0,"x_max":722,"ha":722,"o":"m 518 109 b 556 162 577 225 591 277 b 598 308 604 325 667 325 l 667 350 l 469 350 l 469 325 b 545 325 553 302 553 275 b 553 228 533 175 496 132 l 284 364 b 367 414 439 459 439 543 b 439 625 372 672 281 672 b 185 672 108 620 108 507 b 108 466 120 415 183 345 b 110 303 36 250 36 154 b 36 52 119 -12 262 -12 b 350 -12 414 12 461 49 b 501 15 546 0 629 0 l 679 0 l 679 27 b 619 27 565 62 518 109 z m 281 643 b 335 643 372 612 372 539 b 372 479 346 442 261 390 b 206 452 185 495 185 540 b 185 605 221 643 281 643 z m 127 180 b 127 234 154 277 209 317 l 432 77 b 395 55 351 41 300 41 b 201 41 127 94 127 180 z"},"_":{"x_min":0,"x_max":497,"ha":497,"o":"m 15 -114 l 482 -114 l 482 -70 l 15 -70 l 15 -114 z"},"v":{"x_min":0,"x_max":492,"ha":492,"o":"m 213 0 l 261 0 l 419 398 b 432 429 443 439 487 439 l 487 468 l 319 468 l 319 439 l 363 439 b 380 439 383 424 378 409 l 265 95 l 262 95 l 148 408 b 142 425 145 439 164 439 l 204 439 l 204 468 l -4 468 l -4 439 b 40 439 50 431 63 398 l 213 0 z"},"O":{"x_min":0,"x_max":710,"ha":710,"o":"m 355 -12 b 566 -12 658 134 658 329 b 658 519 569 672 355 672 b 141 672 53 519 53 329 b 53 134 145 -12 355 -12 z m 356 22 b 198 22 160 180 160 329 b 160 491 197 638 356 638 b 515 638 552 491 552 329 b 552 180 514 22 356 22 z"},"(":{"x_min":0,"x_max":333,"ha":333,"o":"m 308 -124 l 309 -104 b 206 -74 152 93 152 266 b 152 438 204 607 309 635 l 308 657 b 121 646 85 426 85 266 b 85 106 121 -114 308 -124 z"},"C":{"x_min":0,"x_max":651,"ha":651,"o":"m 366 -12 b 529 -12 582 86 605 148 l 580 161 b 554 101 513 22 381 22 b 221 22 159 178 159 331 b 159 450 202 638 381 638 b 514 638 557 546 574 480 l 601 480 l 591 660 l 564 660 l 561 649 b 558 642 551 635 537 635 b 511 635 470 672 374 672 b 170 672 53 540 53 322 b 53 117 164 -12 366 -12 z"},"W":{"x_min":0,"x_max":912,"ha":912,"o":"m 246 0 l 307 0 l 447 510 l 449 510 l 599 0 l 658 0 l 814 560 b 832 617 845 631 903 631 l 903 660 l 707 660 l 707 631 l 753 631 b 780 631 779 615 773 591 l 656 122 l 652 122 l 500 644 l 445 644 l 306 123 l 303 123 l 177 594 b 169 624 174 631 197 631 l 239 631 l 239 660 l 14 660 l 14 631 b 67 631 77 623 91 573 l 246 0 z"},"A":{"x_min":0,"x_max":646,"ha":646,"o":"m 564 84 l 355 660 l 299 660 l 87 91 b 70 44 60 29 7 29 l 7 0 l 185 0 l 185 29 l 149 29 b 121 29 117 46 125 71 l 188 250 l 410 250 l 473 74 b 481 48 476 29 447 29 l 409 29 l 409 0 l 638 0 l 638 29 b 589 29 579 38 564 84 z m 201 284 l 297 556 l 300 556 l 398 284 l 201 284 z"},"f":{"x_min":0,"x_max":309,"ha":309,"o":"m 35 0 l 275 0 l 275 29 b 194 29 189 35 189 82 l 189 433 l 301 433 l 301 468 l 189 468 l 189 572 b 189 641 216 675 259 675 b 279 675 296 666 296 656 b 296 641 278 638 278 611 b 278 583 296 567 324 567 b 353 567 370 588 370 617 b 370 664 334 705 254 705 b 151 705 104 635 104 532 l 104 468 l 34 468 l 34 433 l 104 433 l 104 83 b 104 37 100 29 35 29 l 35 0 z"},"Q":{"x_min":0,"x_max":710,"ha":710,"o":"m 506 -115 b 450 -115 424 -59 421 -7 b 585 21 658 156 658 328 b 658 519 569 672 355 672 b 141 672 53 519 53 328 b 53 146 134 6 317 -10 b 322 -82 368 -160 468 -160 b 524 -160 558 -135 583 -112 l 568 -92 b 551 -106 529 -115 506 -115 z m 160 334 b 160 491 198 638 356 638 b 514 638 552 491 552 334 b 552 181 515 22 356 22 b 197 22 160 181 160 334 z"},"w":{"x_min":0,"x_max":706,"ha":706,"o":"m 183 0 l 237 0 l 342 340 l 345 340 l 456 0 l 511 0 l 627 389 b 638 429 649 439 698 439 l 698 468 l 525 468 l 525 439 l 566 439 b 591 439 595 428 589 404 l 508 94 l 506 94 l 392 460 l 339 460 l 234 94 l 232 94 l 146 406 b 139 429 146 439 163 439 l 194 439 l 194 468 l -2 468 l -2 439 b 36 439 50 434 60 399 l 183 0 z"},"-":{"x_min":0,"x_max":343,"ha":343,"o":"m 58 231 l 284 231 l 284 298 l 58 298 l 58 231 z"},"E":{"x_min":0,"x_max":587,"ha":587,"o":"m 50 0 l 538 0 l 549 172 l 523 172 b 498 58 462 33 341 33 b 236 33 219 45 219 111 l 219 325 l 333 325 b 410 325 416 303 426 242 l 450 242 l 450 446 l 426 446 b 416 384 410 363 333 363 l 219 363 l 219 590 b 219 621 224 626 255 626 l 343 626 b 452 626 472 598 489 500 l 515 500 l 515 660 l 50 660 l 50 631 b 123 631 127 623 127 571 l 127 89 b 127 37 124 29 50 29 l 50 0 z"},"s":{"x_min":0,"x_max":441,"ha":441,"o":"m 222 -11 b 323 -13 395 45 395 134 b 395 212 341 247 249 279 l 222 288 b 183 302 135 329 135 376 b 135 419 175 448 229 448 b 301 448 334 397 349 332 l 369 332 l 362 479 l 344 479 b 342 473 341 461 323 461 b 301 461 283 479 224 479 b 128 479 62 428 62 343 b 62 275 105 245 180 215 l 205 206 b 263 183 318 164 318 103 b 318 50 278 21 221 21 b 151 21 96 66 70 162 l 50 162 l 60 -3 l 79 -3 b 85 9 90 16 105 16 b 134 16 155 -10 222 -11 z"},">":{"x_min":0,"x_max":590,"ha":590,"o":"m 61 -7 l 530 205 l 530 264 l 61 476 l 61 412 l 452 235 l 61 57 l 61 -7 z"},"l":{"x_min":0,"x_max":281,"ha":281,"o":"m 30 0 l 252 0 l 252 29 b 189 29 184 37 184 83 l 184 692 l 156 692 l 35 672 l 35 642 l 69 642 b 93 642 99 634 99 599 l 99 83 b 99 37 95 29 30 29 l 30 0 z"},"8":{"x_min":0,"x_max":533,"ha":533,"o":"m 252 -11 b 388 -11 474 66 474 177 b 474 262 425 311 335 363 b 414 410 455 465 455 531 b 455 635 356 671 277 671 b 179 671 73 616 73 501 b 73 437 106 386 192 334 b 95 283 48 225 48 149 b 48 45 136 -11 252 -11 z m 307 381 b 198 444 153 476 153 535 b 153 601 207 639 273 639 b 348 639 394 590 394 523 b 394 469 365 421 307 381 z m 258 22 b 173 22 109 73 109 156 b 109 227 158 281 218 317 b 354 234 394 206 394 143 b 394 68 338 22 258 22 z"},"\\":{"x_min":0,"x_max":328,"ha":328,"o":"m 264 -12 l 326 -12 l 63 671 l 1 671 l 264 -12 z"},"e":{"x_min":0,"x_max":506,"ha":506,"o":"m 460 239 b 460 350 429 479 262 479 b 119 479 49 385 49 229 b 49 78 115 -11 261 -11 b 388 -11 434 56 457 124 l 429 136 b 411 83 372 29 287 29 b 171 29 144 123 142 230 l 460 230 l 460 239 z m 142 262 b 147 382 182 448 263 448 b 343 448 367 382 367 262 l 142 262 z"},"b":{"x_min":0,"x_max":563,"ha":563,"o":"m 334 479 b 264 479 216 453 187 430 l 185 430 l 185 692 l 157 692 l 34 671 l 34 641 l 65 641 b 95 641 100 634 100 595 l 100 0 l 131 0 l 161 35 l 169 35 b 199 12 241 -12 305 -12 b 430 -12 515 63 515 244 b 515 400 451 479 334 479 z m 293 20 b 248 20 212 42 185 70 l 185 387 b 213 412 250 438 299 438 b 385 438 421 361 421 230 b 421 81 374 20 293 20 z"},"%":{"x_min":0,"x_max":859,"ha":859,"o":"m 221 323 b 306 323 367 391 367 498 b 367 604 306 672 221 672 b 136 672 75 603 75 498 b 75 392 136 323 221 323 z m 221 -12 l 263 -12 l 634 672 l 591 672 l 221 -12 z m 220 348 b 158 348 144 415 144 498 b 144 579 159 647 220 647 b 282 647 297 579 297 498 b 297 415 283 348 220 348 z m 638 -11 b 723 -11 784 57 784 164 b 784 269 723 338 638 338 b 553 338 492 269 492 164 b 492 58 553 -11 638 -11 z m 638 14 b 576 14 562 81 562 164 b 562 245 577 313 638 313 b 700 313 715 245 715 164 b 715 81 701 14 638 14 z"},"m":{"x_min":0,"x_max":856,"ha":856,"o":"m 754 83 l 754 335 b 754 433 713 479 628 479 b 557 479 506 448 468 398 b 455 446 415 479 346 479 b 279 479 229 450 188 402 l 187 402 l 187 474 l 159 474 l 41 454 l 41 424 l 75 424 b 98 424 104 416 104 381 l 104 83 b 104 37 101 29 36 29 l 36 0 l 255 0 l 255 29 b 197 29 190 33 190 81 l 190 361 b 217 399 252 431 303 431 b 366 431 388 385 388 324 l 388 81 b 388 34 383 29 322 29 l 322 0 l 538 0 l 538 29 b 477 29 472 37 472 83 l 472 358 b 500 398 534 431 585 431 b 648 431 670 385 670 324 l 670 81 b 670 34 665 29 604 29 l 604 0 l 823 0 l 823 29 b 759 29 754 36 754 83 z"},"#":{"x_min":0,"x_max":497,"ha":497,"o":"m 473 398 l 473 441 l 388 441 l 418 660 l 368 660 l 338 441 l 193 441 l 223 660 l 173 660 l 143 441 l 50 441 l 50 398 l 137 398 l 117 252 l 24 252 l 24 208 l 111 208 l 82 0 l 132 0 l 161 208 l 306 208 l 277 0 l 327 0 l 356 208 l 447 208 l 447 252 l 362 252 l 382 398 l 473 398 z m 312 252 l 167 252 l 187 398 l 332 398 l 312 252 z"},",":{"x_min":0,"x_max":264,"ha":264,"o":"m 86 -107 b 167 -93 195 -27 195 32 b 195 89 167 110 136 110 b 106 110 79 89 79 53 b 79 12 110 2 128 -2 b 141 -5 145 -12 145 -22 b 145 -54 116 -73 82 -81 l 86 -107 z"},"n":{"x_min":0,"x_max":587,"ha":587,"o":"m 485 83 l 485 335 b 485 431 440 479 350 479 b 282 479 233 453 188 400 l 187 400 l 187 474 l 159 474 l 41 454 l 41 424 l 75 424 b 98 424 104 416 104 381 l 104 83 b 104 37 101 29 36 29 l 36 0 l 255 0 l 255 29 b 197 29 190 33 190 81 l 190 360 b 219 399 252 431 308 431 b 376 431 401 383 401 324 l 401 81 b 401 34 395 29 335 29 l 335 0 l 554 0 l 554 29 b 490 29 485 37 485 83 z"},"h":{"x_min":0,"x_max":579,"ha":579,"o":"m 477 83 l 477 335 b 477 431 432 479 342 479 b 273 479 225 453 184 404 l 181 404 l 181 692 l 153 692 l 33 672 l 33 642 l 67 642 b 90 642 96 634 96 599 l 96 83 b 96 37 93 29 28 29 l 28 0 l 247 0 l 247 29 b 186 29 181 37 181 81 l 181 357 b 211 401 246 431 299 431 b 368 431 393 383 393 324 l 393 81 b 393 37 388 29 327 29 l 327 0 l 546 0 l 546 29 b 482 29 477 37 477 83 z"},"z":{"x_min":0,"x_max":466,"ha":466,"o":"m 38 0 l 425 0 l 435 148 l 409 148 b 391 57 365 32 260 32 l 132 32 l 420 438 l 420 468 l 73 468 l 69 327 l 96 327 b 110 412 127 437 227 437 l 326 437 l 38 30 l 38 0 z"},"B":{"x_min":0,"x_max":618,"ha":618,"o":"m 50 0 l 318 0 b 479 0 573 54 573 178 b 573 282 505 343 412 359 l 412 360 b 494 378 543 433 543 508 b 543 617 444 660 301 660 l 50 660 l 50 631 b 123 631 127 622 127 571 l 127 89 b 127 37 124 29 50 29 l 50 0 z m 219 372 l 219 580 b 219 615 225 626 284 626 b 375 626 446 596 446 498 b 446 413 395 372 293 372 l 219 372 z m 301 33 b 236 33 219 50 219 106 l 219 337 l 296 337 b 411 337 470 277 470 179 b 470 72 400 33 301 33 z"},"K":{"x_min":0,"x_max":639,"ha":639,"o":"m 513 119 l 308 391 l 469 546 b 533 609 562 631 612 631 l 612 660 l 422 660 l 422 631 l 453 631 b 479 631 477 611 457 590 l 219 348 l 219 570 b 219 622 223 631 296 631 l 296 660 l 50 660 l 50 631 b 123 631 127 622 127 570 l 127 89 b 127 38 124 29 50 29 l 50 0 l 296 0 l 296 29 b 224 29 219 38 219 89 l 219 306 l 242 329 l 422 78 b 442 48 435 29 412 29 l 394 29 l 394 0 l 633 0 l 633 29 b 585 29 550 66 513 119 z"},"R":{"x_min":0,"x_max":605,"ha":605,"o":"m 50 0 l 301 0 l 301 29 b 226 29 219 38 219 85 l 219 310 l 280 310 b 350 310 382 281 395 215 l 419 92 b 429 45 441 17 459 0 l 589 0 l 589 29 b 536 29 517 69 505 138 l 499 175 b 484 268 456 308 388 328 l 388 330 b 471 349 530 403 530 497 b 530 607 448 660 319 660 l 50 660 l 50 631 b 120 631 127 622 127 574 l 127 85 b 127 39 121 29 50 29 l 50 0 z m 219 346 l 219 588 b 219 613 227 625 280 625 b 381 625 430 582 430 485 b 430 389 383 346 282 346 l 219 346 z"},"T":{"x_min":0,"x_max":576,"ha":576,"o":"m 147 0 l 429 0 l 429 29 b 340 29 334 36 334 89 l 334 627 l 389 627 b 496 627 513 601 530 498 l 556 498 l 556 660 l 20 660 l 20 498 l 46 498 b 62 601 80 627 188 627 l 242 627 l 242 89 b 242 36 239 29 147 29 l 147 0 z"},"P":{"x_min":0,"x_max":570,"ha":570,"o":"m 50 0 l 307 0 l 307 29 b 227 29 219 37 219 85 l 219 268 l 288 268 b 462 268 538 357 538 472 b 538 581 467 660 298 660 l 50 660 l 50 631 b 120 631 127 622 127 574 l 127 85 b 127 39 121 29 50 29 l 50 0 z m 219 305 l 219 590 b 219 612 226 625 279 625 b 387 625 438 573 438 466 b 438 357 384 305 282 305 l 219 305 z"},"|":{"x_min":0,"x_max":260,"ha":260,"o":"m 100 -198 l 159 -198 l 159 729 l 100 729 l 100 -198 z"},"t":{"x_min":0,"x_max":303,"ha":303,"o":"m 182 -11 b 235 -11 267 15 292 33 l 281 57 b 268 47 242 33 219 33 b 188 33 169 52 169 109 l 169 436 l 280 436 l 280 468 l 169 468 l 169 620 l 140 620 b 125 535 86 474 11 466 l 11 436 l 84 436 l 84 94 b 84 10 136 -11 182 -11 z"},"M":{"x_min":0,"x_max":838,"ha":838,"o":"m 38 0 l 239 0 l 239 29 l 202 29 b 154 29 152 38 152 82 l 152 570 l 154 570 l 379 26 l 397 26 l 619 570 l 621 570 l 621 85 b 621 39 616 29 543 29 l 543 0 l 787 0 l 787 29 b 719 29 711 38 711 85 l 711 574 b 711 623 718 630 787 631 l 787 660 l 619 660 l 417 169 l 416 169 l 214 660 l 38 660 l 38 631 b 107 630 114 623 114 574 l 114 82 b 114 42 109 29 67 29 l 38 29 l 38 0 z"},"g":{"x_min":0,"x_max":566,"ha":566,"o":"m 472 479 b 438 479 410 462 388 433 b 352 465 300 479 246 479 b 154 479 55 436 55 321 b 55 249 93 207 144 185 b 88 157 58 123 58 87 b 58 55 81 24 122 11 b 59 -13 36 -44 36 -88 b 36 -175 127 -212 240 -212 b 365 -212 472 -166 472 -51 b 472 31 419 76 291 76 l 219 76 b 148 76 129 98 129 118 b 129 142 153 161 177 174 b 199 169 221 167 244 167 b 338 167 433 207 433 322 b 433 359 423 389 406 412 b 422 434 437 443 447 443 b 460 443 468 435 468 427 b 468 420 464 415 464 402 b 464 384 479 368 504 368 b 530 368 545 387 545 415 b 545 453 515 479 472 479 z m 242 199 b 169 199 147 250 147 320 b 147 397 172 446 247 446 b 322 446 345 397 345 327 b 345 246 320 199 242 199 z m 269 3 b 364 3 397 -21 397 -72 b 397 -143 336 -181 252 -181 b 169 -181 115 -142 115 -80 b 115 -52 127 -16 175 3 l 269 3 z"},"j":{"x_min":0,"x_max":240,"ha":240,"o":"m 110 561 b 142 561 165 586 165 617 b 165 647 143 672 110 672 b 77 672 55 648 55 616 b 55 585 77 561 110 561 z m 20 -212 b 128 -212 155 -120 155 2 l 155 474 l 129 474 l 6 454 l 6 424 l 40 424 b 64 424 69 416 69 381 l 69 -108 b 69 -159 59 -181 32 -181 b 21 -181 8 -177 8 -164 b 8 -152 17 -149 17 -133 b 16 -105 -5 -91 -27 -91 b -52 -91 -73 -110 -73 -143 b -73 -183 -41 -212 20 -212 z"},"i":{"x_min":0,"x_max":296,"ha":296,"o":"m 143 562 b 175 562 198 586 198 616 b 198 648 177 672 143 672 b 110 672 88 648 88 616 b 88 586 110 562 143 562 z m 35 0 l 257 0 l 257 29 b 193 29 189 36 189 83 l 189 474 l 161 474 l 40 454 l 40 424 l 74 424 b 98 424 103 416 103 381 l 103 83 b 103 37 100 29 35 29 l 35 0 z"},"y":{"x_min":0,"x_max":483,"ha":483,"o":"m 306 468 l 306 439 l 347 439 b 368 439 375 428 367 405 l 255 103 l 254 103 l 146 406 b 139 426 142 439 165 439 l 199 439 l 199 468 l -11 468 l -11 439 b 35 439 44 432 59 392 l 214 -8 l 181 -96 b 157 -161 144 -180 117 -180 b 108 -180 100 -177 100 -168 b 100 -155 114 -150 114 -127 b 114 -99 92 -84 69 -84 b 41 -84 18 -108 18 -140 b 18 -178 50 -211 103 -211 b 172 -211 191 -157 220 -82 l 402 388 b 418 429 425 439 476 439 l 476 468 l 306 468 z"},"@":{"x_min":0,"x_max":740,"ha":740,"o":"m 357 -12 b 418 -12 488 2 540 33 l 533 54 b 489 40 430 29 372 29 b 158 29 97 182 97 293 b 97 465 230 620 413 620 b 555 620 665 532 665 391 b 665 298 608 197 532 197 b 492 197 482 222 493 260 l 558 503 l 498 503 l 493 491 b 472 504 453 507 434 507 b 267 507 202 318 202 237 b 202 185 229 159 271 159 b 335 159 400 211 438 292 l 441 290 l 428 247 b 413 197 440 159 501 159 b 611 159 705 263 705 393 b 705 544 588 664 410 664 b 207 664 35 513 35 291 b 35 97 172 -12 357 -12 z m 312 200 b 287 200 274 218 274 248 b 274 310 338 481 438 481 b 459 481 473 474 486 466 l 454 369 b 426 283 361 200 312 200 z"},".":{"x_min":0,"x_max":278,"ha":278,"o":"m 139 -9 b 170 -9 195 16 195 47 b 195 77 170 103 139 103 b 108 103 83 77 83 47 b 83 16 108 -9 139 -9 z"},"p":{"x_min":0,"x_max":563,"ha":563,"o":"m 333 479 b 260 479 209 448 182 425 l 182 474 l 155 474 l 36 454 l 36 425 l 66 425 b 95 425 100 417 100 385 l 100 -117 b 100 -164 97 -171 32 -171 l 32 -200 l 259 -200 l 259 -171 b 191 -171 185 -164 185 -117 l 185 31 b 213 9 248 -12 304 -12 b 431 -12 515 66 515 245 b 515 400 452 479 333 479 z m 293 20 b 247 20 211 43 185 71 l 185 388 b 209 409 249 438 300 438 b 385 438 422 360 422 232 b 422 85 375 20 293 20 z"},"X":{"x_min":0,"x_max":658,"ha":658,"o":"m 538 84 l 358 369 l 504 576 b 539 624 556 631 610 631 l 610 660 l 411 660 l 411 631 l 456 631 b 477 631 478 619 466 600 l 339 401 l 336 401 l 214 598 b 202 618 205 631 224 631 l 268 631 l 268 660 l 28 660 l 28 631 b 84 631 97 622 127 574 l 280 327 l 117 81 b 88 38 73 29 16 29 l 16 0 l 234 0 l 234 29 l 177 29 b 159 29 153 45 162 63 l 299 292 l 303 292 l 443 64 b 455 45 449 29 427 29 l 377 29 l 377 0 l 643 0 l 643 29 b 579 29 566 40 538 84 z"},"*":{"x_min":0,"x_max":344,"ha":344,"o":"m 171 342 b 192 342 208 350 205 366 l 190 471 l 192 472 l 276 406 b 288 396 303 406 312 423 b 323 441 324 459 309 464 l 209 503 l 209 505 l 309 545 b 324 550 323 569 312 586 b 303 604 287 613 276 604 l 192 536 l 190 538 l 205 644 b 208 659 192 667 171 667 b 152 667 136 659 138 644 l 154 539 l 152 537 l 68 604 b 55 613 41 604 31 586 b 21 569 19 551 35 545 l 133 506 l 133 503 l 34 464 b 20 458 21 441 31 423 b 41 406 55 396 68 405 l 151 472 l 154 470 l 138 366 b 135 350 152 342 171 342 z"},"Y":{"x_min":0,"x_max":619,"ha":619,"o":"m 410 660 l 410 631 l 461 631 b 480 631 483 617 474 598 l 340 315 l 338 315 l 197 601 b 188 618 191 631 209 631 l 258 631 l 258 660 l 21 660 l 21 631 b 70 631 84 622 104 582 l 271 258 l 271 89 b 271 39 267 29 180 29 l 180 0 l 453 0 l 453 29 b 366 29 361 38 361 89 l 361 270 l 511 573 b 537 621 547 631 604 631 l 604 660 l 410 660 z"},"c":{"x_min":0,"x_max":483,"ha":483,"o":"m 266 -11 b 395 -11 436 70 447 104 l 423 118 b 410 89 376 29 287 29 b 199 29 143 88 143 241 b 143 401 204 448 287 448 b 329 448 360 435 360 417 b 360 401 339 395 339 363 b 339 335 356 314 390 314 b 425 314 441 337 441 370 b 441 439 369 479 274 479 b 118 479 49 371 49 230 b 49 84 124 -11 266 -11 z"},"!":{"x_min":0,"x_max":285,"ha":285,"o":"m 125 178 l 162 178 l 193 541 b 195 564 198 589 198 608 b 198 645 185 674 143 674 b 102 674 89 644 89 611 b 89 592 93 551 94 541 l 125 178 z m 142 -10 b 176 -10 199 15 200 48 b 200 80 176 107 142 107 b 109 107 85 80 85 48 b 85 15 109 -10 142 -10 z"},"/":{"x_min":0,"x_max":320,"ha":320,"o":"m 1 -12 l 60 -12 l 318 671 l 260 671 l 1 -12 z"},"[":{"x_min":0,"x_max":292,"ha":292,"o":"m 99 -125 l 253 -125 l 253 -95 l 163 -95 l 163 631 l 253 631 l 253 660 l 99 660 l 99 -125 z"},"6":{"x_min":0,"x_max":557,"ha":557,"o":"m 281 -12 b 420 -12 499 86 499 210 b 499 349 411 423 314 424 b 246 424 189 388 152 321 l 150 321 b 163 516 269 642 426 649 l 426 680 b 206 674 53 531 53 283 b 53 101 134 -12 281 -12 z m 284 21 b 194 21 150 114 150 207 b 150 307 201 362 279 362 b 358 362 403 305 403 194 b 403 86 360 21 284 21 z"},"r":{"x_min":0,"x_max":395,"ha":395,"o":"m 311 480 b 242 480 207 416 188 380 l 187 380 l 187 474 l 159 474 l 41 454 l 41 424 l 75 424 b 98 424 104 416 104 381 l 104 83 b 104 37 101 29 36 29 l 36 0 l 265 0 l 265 29 b 195 29 190 36 190 83 l 190 303 b 198 382 251 444 288 444 b 297 444 301 440 301 435 b 301 423 277 414 277 384 b 277 358 294 337 329 337 b 369 337 386 363 386 401 b 386 450 359 480 311 480 z"},"2":{"x_min":0,"x_max":546,"ha":546,"o":"m 48 0 l 451 0 l 487 146 l 458 146 b 445 105 433 83 357 83 l 122 83 b 127 129 184 188 301 270 b 398 335 464 382 464 491 b 464 603 392 672 263 672 b 166 672 68 630 68 542 b 68 497 94 477 127 477 b 160 477 182 497 182 533 b 182 560 163 565 163 586 b 163 615 196 640 247 640 b 321 640 365 591 365 505 b 365 389 286 325 223 270 b 129 187 48 99 48 10 l 48 0 z"},"{":{"x_min":0,"x_max":283,"ha":283,"o":"m 230 -125 l 253 -125 l 253 -96 b 177 -94 178 -50 178 7 l 178 139 b 178 204 171 247 96 265 l 96 271 b 172 290 178 335 178 400 l 178 529 b 178 583 176 629 253 631 l 253 660 l 229 660 b 114 660 112 580 112 501 l 112 371 b 112 313 90 279 40 280 l 40 257 b 87 257 112 227 112 162 l 112 34 b 112 -48 112 -125 230 -125 z"},"9":{"x_min":0,"x_max":557,"ha":557,"o":"m 131 -21 b 351 -15 504 128 504 376 b 504 558 423 671 276 671 b 137 671 58 572 58 451 b 58 316 147 236 244 235 b 311 235 368 271 405 338 l 407 338 b 395 142 289 16 131 8 l 131 -21 z m 280 297 b 200 297 154 358 154 467 b 154 572 198 638 274 638 b 364 638 407 545 407 452 b 407 352 356 297 280 297 z"}," ":{"x_min":0,"x_max":239,"ha":239,"o":""},"I":{"x_min":0,"x_max":345,"ha":345,"o":"m 50 0 l 296 0 l 296 29 b 224 29 219 38 219 89 l 219 570 b 219 622 223 631 296 631 l 296 660 l 50 660 l 50 631 b 123 631 127 622 127 570 l 127 89 b 127 38 124 29 50 29 l 50 0 z"},"H":{"x_min":0,"x_max":759,"ha":759,"o":"m 50 0 l 296 0 l 296 29 b 224 29 219 37 219 85 l 219 325 l 541 325 l 541 85 b 541 37 538 29 464 29 l 464 0 l 710 0 l 710 29 b 638 29 633 37 633 85 l 633 574 b 633 621 638 630 710 631 l 710 660 l 464 660 l 464 631 b 537 631 541 621 541 574 l 541 363 l 219 363 l 219 574 b 219 621 223 631 296 631 l 296 660 l 50 660 l 50 631 b 123 630 127 621 127 574 l 127 85 b 127 37 124 29 50 29 l 50 0 z"},"4":{"x_min":0,"x_max":535,"ha":535,"o":"m 234 0 l 471 0 l 471 31 l 432 31 b 406 31 401 44 401 70 l 401 184 l 497 184 l 497 249 l 401 249 l 401 668 l 334 668 b 222 522 128 386 33 237 l 33 184 l 314 184 l 314 70 b 314 44 307 31 281 31 l 234 31 l 234 0 z m 86 249 b 149 348 228 463 310 572 l 314 572 l 314 249 l 86 249 z"},"~":{"x_min":0,"x_max":535,"ha":535,"o":"m 88 169 b 104 200 127 238 167 238 b 198 238 229 222 262 206 b 297 191 332 175 368 175 b 427 175 459 216 483 254 l 450 300 b 430 267 405 231 372 231 b 347 231 314 248 279 263 b 243 279 205 294 170 294 b 109 294 75 254 55 215 l 88 169 z"},"D":{"x_min":0,"x_max":725,"ha":725,"o":"m 50 0 l 323 0 b 543 0 672 114 672 341 b 672 550 554 658 347 660 l 50 660 l 50 631 b 123 631 127 623 127 571 l 127 89 b 127 37 124 29 50 29 l 50 0 z m 314 33 b 245 33 219 45 219 110 l 219 577 b 219 621 232 626 323 626 b 496 624 565 510 565 337 b 565 109 460 33 314 33 z"},"^":{"x_min":0,"x_max":583,"ha":583,"o":"m 89 309 l 153 309 l 294 590 l 434 309 l 498 309 l 323 660 l 264 660 l 89 309 z"},"0":{"x_min":0,"x_max":563,"ha":563,"o":"m 281 -11 b 439 -11 510 142 510 330 b 510 518 439 671 281 671 b 123 671 53 518 53 330 b 53 142 123 -11 281 -11 z m 281 21 b 180 21 152 106 152 330 b 152 545 180 640 281 640 b 382 640 410 545 410 330 b 410 115 382 21 281 21 z"},"F":{"x_min":0,"x_max":548,"ha":548,"o":"m 50 0 l 312 0 l 312 29 b 225 29 220 38 220 89 l 220 309 l 338 309 b 416 309 421 287 432 225 l 455 225 l 455 432 l 432 432 b 421 370 416 348 338 348 l 220 348 l 220 590 b 220 622 225 626 256 626 l 342 626 b 453 626 473 600 490 503 l 517 503 l 517 660 l 50 660 l 50 631 b 123 631 127 622 127 571 l 127 89 b 127 38 124 29 50 29 l 50 0 z"},"`":{"x_min":0,"x_max":385,"ha":385,"o":"m 219 562 l 247 562 l 170 722 b 159 744 147 755 128 755 b 109 755 92 738 92 718 b 92 705 96 697 116 674 l 219 562 z"},"k":{"x_min":0,"x_max":518,"ha":518,"o":"m 506 29 b 481 29 463 44 414 110 l 280 289 l 345 360 b 388 407 424 439 481 439 l 495 439 l 495 468 l 313 468 l 313 439 l 332 439 b 356 439 359 420 327 384 l 188 231 l 188 692 l 160 692 l 39 672 l 39 642 l 73 642 b 97 642 103 634 103 599 l 103 83 b 103 37 99 29 34 29 l 34 0 l 256 0 l 256 29 b 193 29 188 37 188 83 l 188 190 l 226 231 l 341 76 b 352 60 361 47 361 40 b 361 33 352 29 337 29 l 322 29 l 322 0 l 516 0 l 516 29 l 506 29 z"},"u":{"x_min":0,"x_max":583,"ha":583,"o":"m 475 83 l 475 474 l 447 474 l 326 456 l 326 427 l 360 427 b 384 427 390 418 390 383 l 389 113 b 361 73 324 37 271 37 b 204 37 179 86 179 147 l 179 474 l 151 474 l 30 456 l 30 427 l 64 427 b 88 427 94 418 94 383 l 94 131 b 94 36 137 -12 227 -12 b 305 -12 355 28 389 72 l 389 70 l 392 70 l 392 0 l 543 0 l 543 29 b 480 29 475 37 475 83 z"},"]":{"x_min":0,"x_max":292,"ha":292,"o":"m 38 -125 l 192 -125 l 192 660 l 38 660 l 38 631 l 128 631 l 128 -95 l 38 -95 l 38 -125 z"},"U":{"x_min":0,"x_max":734,"ha":734,"o":"m 367 -12 b 536 -12 617 65 617 232 l 617 571 b 617 622 620 631 694 631 l 694 660 l 448 660 l 448 631 b 520 631 525 622 525 571 l 525 226 b 525 102 475 22 369 22 b 262 22 212 103 212 226 l 212 571 b 212 622 216 631 289 631 l 289 660 l 43 660 l 43 631 b 116 631 120 622 120 571 l 120 232 b 120 65 198 -12 367 -12 z"},"o":{"x_min":0,"x_max":531,"ha":531,"o":"m 265 -11 b 414 -11 483 74 483 235 b 483 394 414 480 266 480 b 118 480 48 393 48 234 b 48 74 118 -11 265 -11 z m 266 21 b 181 21 141 96 141 234 b 141 372 181 448 265 448 b 350 448 390 373 390 235 b 391 97 353 21 266 21 z"},"N":{"x_min":0,"x_max":702,"ha":702,"o":"m 537 -6 l 586 -6 l 586 583 b 586 615 601 631 632 631 l 662 631 l 662 660 l 458 660 l 458 631 l 497 631 b 531 631 548 615 548 583 l 548 148 l 545 148 l 208 660 l 40 660 l 40 631 b 110 630 117 623 117 574 l 117 81 b 117 45 102 29 70 29 l 41 29 l 41 0 l 245 0 l 245 29 l 206 29 b 170 29 156 44 156 81 l 156 562 l 158 562 l 537 -6 z"},"+":{"x_min":0,"x_max":532,"ha":532,"o":"m 236 4 l 295 4 l 295 208 l 498 208 l 498 265 l 295 265 l 295 469 l 236 469 l 236 265 l 33 265 l 33 208 l 236 208 l 236 4 z"},"G":{"x_min":0,"x_max":664,"ha":664,"o":"m 360 -12 b 462 -12 513 24 548 24 b 566 24 575 15 581 -2 l 600 -2 l 600 230 b 600 261 612 272 637 272 l 651 272 l 651 301 l 435 301 l 435 272 l 452 272 b 495 272 508 258 508 223 l 508 91 b 499 36 439 22 389 22 b 223 22 159 178 159 328 b 159 451 203 638 383 638 b 510 638 558 545 574 480 l 601 480 l 591 660 l 567 660 l 562 649 b 559 641 552 635 539 635 b 507 635 474 672 371 672 b 171 672 53 534 53 324 b 53 118 166 -12 360 -12 z"},"q":{"x_min":0,"x_max":537,"ha":537,"o":"m 464 -117 l 464 474 l 437 474 l 392 434 b 362 457 323 479 263 479 b 132 479 48 399 48 225 b 48 74 112 -12 229 -12 b 298 -12 346 15 375 38 l 379 38 l 379 -117 b 379 -163 374 -171 307 -171 l 307 -200 l 532 -200 l 532 -171 b 469 -171 464 -163 464 -117 z m 142 237 b 142 384 188 448 271 448 b 315 448 352 425 379 396 l 379 82 b 350 57 313 30 264 30 b 178 30 142 108 142 237 z"},"d":{"x_min":0,"x_max":549,"ha":549,"o":"m 503 29 b 473 29 463 37 463 76 l 463 692 l 436 692 l 313 670 l 313 641 l 349 641 b 373 641 379 632 379 596 l 379 444 l 376 444 l 376 440 b 351 459 315 479 260 479 b 133 479 48 404 48 226 b 48 72 111 -12 229 -12 b 303 -12 352 24 382 48 l 389 0 l 529 0 l 529 29 l 503 29 z m 142 238 b 142 389 189 448 271 448 b 315 448 352 425 379 397 l 379 87 b 350 61 314 30 264 30 b 178 30 142 106 142 238 z"},"1":{"x_min":0,"x_max":470,"ha":470,"o":"m 108 0 l 412 0 l 412 31 l 357 31 b 316 31 304 40 304 78 l 304 660 l 236 660 b 207 633 130 580 73 553 l 73 514 b 111 530 173 558 216 580 l 216 78 b 216 40 205 31 163 31 l 108 31 l 108 0 z"},"5":{"x_min":0,"x_max":529,"ha":529,"o":"m 224 -11 b 379 -11 466 82 466 210 b 466 316 406 407 279 407 b 224 407 169 390 123 355 l 121 356 l 143 581 l 417 581 l 445 684 l 418 684 b 411 667 403 660 370 660 l 117 660 l 88 302 l 112 302 b 147 338 182 358 233 358 b 321 358 369 302 369 189 b 369 76 318 21 224 21 b 187 21 147 30 147 57 b 147 76 165 81 165 111 b 165 146 141 164 112 164 b 79 164 53 143 53 100 b 53 28 123 -11 224 -11 z"}}}
